# xmcd
#
# Track frame offsets: 
#        150
#        20674
#        40954
#        61508
#
# Disc length: 1064 seconds
#
# Revision: 1
# Processed by: cddbd v1.5.2PL0 Copyright (c) Steve Scherf et al.
# Submitted via: ExactAudioCopy v1.0b3
#
DISCID=29042604
DTITLE=水樹奈々 - STARCAMP EP
DYEAR=2008
DGENRE=JPop
TTITLE0=Astrogation
TTITLE1=COSMIC LOVE
TTITLE2=Dancing in the velvet moon
TTITLE3=空時計
EXTD=
EXTT0=
EXTT1=ロザリオとバンパイア オープニングテーマ
EXTT2=ロザリオとバンパイア エンディングテーマ
EXTT3=
PLAYORDER=
